<?xml version="1.0" encoding="UTF-8"?><svg id="Calque_2" xmlns="http://www.w3.org/2000/svg" width="45" height="38.48" viewBox="0 0 45 38.48"><g id="Calque_1-2"><path d="M21.45,3.68l.98,1.05,1.05-1.05C26.42,.81,30.5-.5,34.51,.17c6.06,1.01,10.49,6.25,10.49,12.39v.51c0,3.65-1.51,7.14-4.18,9.62l-15.88,14.83c-.66,.62-1.53,.96-2.43,.96s-1.78-.34-2.43-.96L4.18,22.7C1.51,20.21,0,16.72,0,13.07v-.51C0,6.42,4.44,1.18,10.49,.17c3.93-.67,8.09,.64,10.95,3.51-.08,0,0,0,0,0h0Zm.98,7.02l-3.96-4.11c-1.91-1.83-4.61-2.7-7.28-2.26-4.02,.67-6.97,4.15-6.97,8.23v.51c0,2.48,1.03,4.85,2.84,6.54l15.44,14.41,15.44-14.41c1.81-1.69,2.84-4.06,2.84-6.54v-.51c0-4.08-2.95-7.56-6.97-8.23-2.66-.44-5.37,.43-7.28,2.26l-4.11,4.11Z"/></g></svg>